<?xml version="1.0" standalone="no"?>
<!DOCTYPE svg PUBLIC "-//W3C//DTD SVG 20010904//EN"
 "http://www.w3.org/TR/2001/REC-SVG-20010904/DTD/svg10.dtd">
<svg version="1.0" xmlns="http://www.w3.org/2000/svg"
 width="700.000000pt" height="700.000000pt" viewBox="0 0 700.000000 700.000000"
 preserveAspectRatio="xMidYMid meet">
<metadata>
Created by potrace 1.14, written by Peter Selinger 2001-2017
</metadata>
<g transform="translate(0.000000,700.000000) scale(0.100000,-0.100000)"
fill="#000000" stroke="none">
<path d="M3767 6775 c-1 -2 -56 -5 -122 -9 -66 -3 -131 -8 -145 -11 -14 -3
-42 -7 -63 -10 -52 -7 -236 -50 -322 -75 -38 -12 -77 -23 -85 -25 -45 -10
-291 -104 -392 -150 -245 -110 -567 -318 -579 -374 -8 -37 -6 -538 3 -546 10
-10 30 4 100 70 117 112 231 195 439 323 236 144 483 245 727 297 110 24 114
25 222 40 93 14 129 16 295 19 94 2 204 -1 245 -5 41 -4 100 -11 130 -14 139
-16 321 -59 495 -118 572 -194 1061 -594 1369 -1120 127 -216 250 -514 282
-682 2 -11 9 -44 15 -73 16 -78 27 -171 35 -293 6 -94 5 -486 -1 -559 -13
-155 -35 -260 -87 -420 -102 -316 -232 -560 -456 -860 -48 -63 -92 -121 -99
-128 -42 -44 8 -54 279 -57 130 -1 241 1 246 4 16 10 173 262 228 366 117 221
231 524 268 715 3 14 7 36 11 50 11 51 35 186 40 230 3 25 8 61 10 80 22 169
22 566 1 690 -3 14 -7 50 -10 80 -3 30 -8 66 -11 80 -3 14 -8 39 -11 55 -14
82 -47 219 -70 300 -29 97 -121 342 -150 397 -10 18 -18 35 -19 38 0 3 -28 57
-61 120 -198 372 -492 716 -834 973 -41 32 -79 60 -85 65 -60 45 -394 242
-411 242 -2 0 -34 14 -71 31 -271 124 -584 212 -843 235 -36 3 -76 8 -90 10
-43 7 -417 23 -423 19z"/>
<path d="M1834 6244 c-48 -37 -167 -139 -230 -199 -58 -56 -368 -352 -444
-425 l-74 -72 -2 -1467 c-1 -1326 -8 -2085 -19 -2291 -13 -228 -13 -231 -55
-316 -66 -133 -173 -286 -540 -779 -201 -269 -256 -350 -266 -391 -7 -26 -6
-26 18 -10 20 13 440 438 643 651 315 331 389 409 666 706 122 131 133 143
221 241 101 113 124 142 131 160 6 17 14 97 22 218 17 252 24 2480 11 3320 -7
495 -14 672 -25 683 -4 4 -30 -9 -57 -29z"/>
<path d="M3875 5648 c-198 -140 -362 -298 -586 -563 -148 -176 -327 -421 -315
-432 7 -7 140 -13 421 -17 268 -5 352 -14 390 -42 28 -21 23 -85 -13 -164 -53
-115 -89 -263 -109 -445 -16 -140 -7 -604 12 -635 1 -3 6 -26 9 -52 8 -61 43
-175 63 -205 9 -13 29 -33 45 -45 29 -20 310 -139 316 -134 1 2 -17 57 -42
122 -24 66 -51 148 -60 184 -17 67 -19 78 -36 170 -6 30 -12 66 -15 79 -2 12
-7 42 -9 65 -3 22 -8 61 -11 86 -11 86 -13 212 -4 239 13 37 45 54 111 57 83
4 80 12 93 -236 5 -103 6 -120 19 -190 14 -77 19 -99 43 -185 73 -259 176
-453 310 -582 l74 -72 32 37 c18 20 37 42 42 49 56 65 158 157 193 174 24 12
46 27 49 34 8 22 -21 66 -152 231 -245 309 -367 522 -404 702 -28 135 -10 166
119 210 168 58 295 74 612 76 l207 2 19 24 c71 92 202 289 202 304 0 18 -88
63 -255 131 -297 121 -319 135 -400 260 -61 96 -84 119 -145 149 -56 28 -207
80 -370 126 -41 12 -111 32 -155 46 l-80 24 -1 102 c0 116 -8 191 -22 229 -17
44 -62 88 -100 99 -51 14 -63 12 -97 -12z"/>
<path d="M2931 4423 c-30 -6 -70 -31 -94 -58 -27 -31 -68 -113 -59 -119 14 -8
604 -3 652 6 55 10 76 31 88 85 12 52 1 69 -48 78 -45 8 -507 15 -539 8z"/>
<path d="M2978 4035 c-1 -1 -25 -5 -53 -8 -119 -14 -210 -41 -241 -72 -30 -30
-34 -102 -7 -112 14 -5 91 6 158 24 11 3 139 7 285 8 146 1 275 5 287 9 23 7
32 24 39 73 7 61 -43 74 -303 78 -89 2 -163 2 -165 0z"/>
<path d="M3057 3704 c-1 -1 -35 -5 -76 -8 -100 -10 -290 -44 -321 -59 -26 -13
-53 -76 -64 -155 -6 -43 5 -56 34 -41 42 21 205 38 505 53 275 14 310 20 324
58 20 54 -26 136 -77 139 -9 0 -26 3 -37 5 -20 5 -283 12 -288 8z"/>
<path d="M3238 3325 c-1 -1 -68 -5 -148 -8 -128 -6 -245 -17 -305 -31 -33 -8
-170 -48 -173 -51 -11 -10 -21 -477 -11 -523 10 -45 12 -46 61 -33 24 6 54 14
68 16 68 13 139 25 180 30 25 3 56 8 70 10 30 4 132 14 215 20 98 8 193 8 309
0 l109 -8 -7 29 c-4 16 -14 70 -22 119 -8 50 -17 104 -20 120 -3 17 -12 67
-20 112 -17 101 -40 160 -66 174 -11 6 -63 13 -116 15 -53 3 -102 7 -109 9 -6
2 -13 2 -15 0z"/>
<path d="M4054 2176 c-33 -8 -100 -30 -149 -51 -100 -41 -144 -44 -235 -13
-123 43 -249 54 -345 31 -16 -4 -32 -7 -35 -8 -25 -5 -69 -24 -144 -62 -79
-40 -194 -73 -252 -72 -69 1 -507 -11 -566 -16 -203 -15 -246 -23 -308 -55
-45 -24 -151 -109 -264 -213 -242 -222 -1247 -1225 -1434 -1430 -44 -49 -47
-73 -9 -61 55 17 130 57 198 107 63 45 523 419 539 437 15 18 177 144 222 173
91 58 192 88 323 98 100 7 1185 5 1262 -3 104 -10 124 -17 163 -54 100 -94
262 -155 427 -160 57 -2 115 1 130 7 38 14 108 13 146 -2 18 -7 73 -36 122
-65 124 -72 198 -96 310 -97 110 -1 159 8 183 33 18 19 19 19 91 -6 106 -37
261 -36 261 1 0 7 -16 34 -35 59 -39 51 -37 53 26 30 51 -18 51 -18 144 -38
81 -17 177 -26 204 -19 28 7 33 29 17 68 -23 55 -15 57 222 50 115 -4 219 -4
231 0 l22 7 -22 35 c-13 21 -18 38 -12 44 5 5 63 11 129 14 145 6 178 10 273
36 77 21 131 51 131 73 0 8 -10 20 -22 29 -23 15 -23 15 17 31 22 10 83 33
135 53 126 47 228 101 248 131 15 23 15 27 -1 54 -23 39 -21 48 6 48 35 0 104
50 186 134 78 81 86 107 36 113 -30 4 -47 20 -42 38 2 6 28 22 57 37 30 15 67
40 83 55 39 36 108 143 101 155 -5 8 -148 4 -264 -7 -19 -2 -80 -6 -135 -10
-55 -4 -120 -9 -145 -11 -25 -2 -188 -6 -364 -10 -264 -5 -317 -3 -310 8 4 7
28 43 54 79 26 36 55 80 65 98 l17 33 -34 -7 c-18 -4 -82 -23 -143 -42 -216
-67 -385 -75 -635 -28 -36 7 -153 39 -243 66 -241 74 -502 105 -633 75z m-559
-222 c53 -11 104 -43 120 -75 38 -73 24 -178 -36 -266 -21 -32 -39 -64 -39
-71 0 -12 39 -33 50 -27 10 6 124 18 148 17 34 -3 42 -10 42 -37 0 -44 -37
-58 -168 -60 l-117 -2 1 -34 c1 -35 9 -115 21 -204 9 -66 9 -162 0 -171 -4 -4
-34 -7 -68 -8 -91 -1 -92 2 -74 192 4 35 8 71 10 80 1 9 6 46 10 82 l7 65
-119 1 c-66 1 -128 6 -140 12 -29 16 -35 50 -13 72 19 19 54 19 168 -5 34 -7
62 -11 62 -10 0 2 -18 41 -40 87 -46 96 -53 121 -54 199 0 86 48 151 125 168
34 8 47 7 104 -5z"/>
<path d="M3415 1880 c-66 -27 -90 -108 -60 -205 24 -74 64 -118 97 -107 57 21
111 163 92 240 -6 24 -20 44 -43 59 -36 24 -53 27 -86 13z"/>
</g>
</svg>
